<?xml version="1.0"?>
<svg xmlns="http://www.w3.org/2000/svg" height="512px" viewBox="0 0 512.00276 512" width="512px"><g><path d="m500.523438 58.519531-11.625 3.679688c-3.132813.84375-5.550782 3.335937-6.296876 6.488281-.75 3.15625.292969 6.46875 2.714844 8.628906 2.421875 2.15625 5.828125 2.8125 8.878906 1.710938l11.625-3.683594c4.449219-1.609375 6.835938-6.4375 5.417969-10.949219-1.421875-4.511719-6.144531-7.101562-10.714843-5.875zm0 0" data-original="#000000" class="active-path" data-old_color="#000000" fill="#179100"/><path d="m488.570312 20.394531c-1.746093-1.5625-4.039062-2.363281-6.378906-2.230469-2.335937.132813-4.523437 1.1875-6.085937 2.933594l-7.941407 8.910156c-2.101562 2.351563-2.789062 5.644532-1.800781 8.640626.988281 2.996093 3.496094 5.238281 6.585938 5.878906 3.085937.644531 6.285156-.410156 8.382812-2.761719l7.945313-8.90625c1.558594-1.75 2.363281-4.042969 2.230468-6.378906-.132812-2.339844-1.1875-4.527344-2.9375-6.085938zm0 0" data-original="#000000" class="active-path" data-old_color="#000000" fill="#179100"/><path d="m440.578125 4.707031c-4.789063-.882812-9.382813 2.277344-10.277344 7.0625l-2.164062 11.773438c-.875 4.785156 2.285156 9.375 7.0625 10.269531.527343.101562 1.0625.152344 1.597656.148438 4.265625-.003907 7.914063-3.054688 8.679687-7.246094l2.144532-11.742188c.875-4.777344-2.273438-9.363281-7.042969-10.265625zm0 0" data-original="#000000" class="active-path" data-old_color="#000000" fill="#179100"/><path d="m505.820312 441.214844-11.625-3.683594c-4.59375-1.300781-9.390624 1.289062-10.824218 5.84375-1.433594 4.558594 1.015625 9.425781 5.527344 10.992188l11.625 3.679687c.855468.273437 1.75.414063 2.648437.414063 4.359375.003906 8.066406-3.179688 8.726563-7.488282.664062-4.308594-1.917969-8.453125-6.078126-9.757812zm0 0" data-original="#000000" class="active-path" data-old_color="#000000" fill="#179100"/><path d="m481.324219 474.792969c-2.101563-2.351563-5.296875-3.40625-8.382813-2.761719-3.089844.640625-5.597656 2.882812-6.585937 5.878906-.988281 2.992188-.300781 6.289063 1.796875 8.640625l7.945312 8.90625c2.101563 2.355469 5.296875 3.40625 8.386719 2.765625 3.085937-.644531 5.597656-2.882812 6.582031-5.878906.988282-2.996094.304688-6.289062-1.796875-8.644531zm0 0" data-original="#000000" class="active-path" data-old_color="#000000" fill="#179100"/><path d="m438.976562 512c.539063.003906 1.074219-.046875 1.601563-.148438 4.777344-.894531 7.933594-5.484374 7.058594-10.265624l-2.144531-11.75c-.875-4.796876-5.476563-7.976563-10.273438-7.097657-4.796875.878907-7.976562 5.476563-7.097656 10.273438l2.144531 11.75c.769531 4.203125 4.4375 7.253906 8.710937 7.238281zm0 0" data-original="#000000" class="active-path" data-old_color="#000000" fill="#179100"/><path d="m12.09375 282.574219c11.769531-.007813 23.039062-4.738281 31.285156-13.136719 18.960938-19.421875 47.667969-45.101562 76.921875-56.824219 49.046875-19.613281 105.367188-46.222656 120.628907-61.484375 7.550781-8.890625 19.871093-12.085937 30.792968-7.988281 12.210938 5.867187 19.871094 18.332031 19.589844 31.875 0 23.472656-41.183594 54.421875-65.722656 70.78125-7.953125 5.21875-15.285156 11.328125-21.859375 18.203125-2.035157 2.121094-2.824219 5.148438-2.082031 7.996094.734374 3.003906 2.96875 5.410156 5.90625 6.367187 9.972656 3.03125 20.367187 4.453125 30.789062 4.210938h134.816406c.488282-.398438 1.023438-.734375 1.589844-1.007813l12.179688-4.679687c9.117187-3.128907 14.3125-12.722657 11.953124-22.066407-1.457031-4.941406-5.007812-8.992187-9.710937-11.089843-4.179687-1.898438-8.945313-2.054688-13.238281-.433594l-.214844.089844h-.042969l-53.46875 20.621093c-1.015625.386719-2.089843.589844-3.179687.589844-4.257813.007813-7.914063-3.027344-8.691406-7.214844-.777344-4.1875 1.546874-8.335937 5.523437-9.855468l53.460937-20.585938.289063-.113281 64.1875-24.71875c7.234375-2.769531 11.820313-9.925781 11.308594-17.65625-.105469-1.726563-.480469-3.429687-1.113281-5.039063-1.667969-4.429687-5.046876-8.007812-9.375-9.921874-4.199219-1.902344-8.980469-2.054688-13.292969-.425782l-.125.054688h-.125l-108.921875 42.140625c-1.015625.398437-2.097656.601562-3.1875.601562-4.253906.003907-7.90625-3.023437-8.6875-7.207031-.78125-4.179688 1.53125-8.324219 5.5-9.855469l108.996094-42.125h.167968.070313l32.722656-12.640625c3.863281-1.46875 7.058594-4.292968 8.988281-7.945312 2.605469-4.550782 3.019532-10.03125 1.128906-14.917969-3.558593-9.070313-13.761718-13.578125-22.863281-10.101563l-32.804687 12.617188-72.207032 29.710938c-2.917968 1.199218-6.253906.75-8.75-1.175782-2.496093-1.929687-3.773437-5.039062-3.355468-8.167968.421875-3.125 2.476562-5.789063 5.394531-6.984376l72.296875-29.75h.089844l.078125-.054687c5.886719-2.269531 10.117187-7.511719 11.089843-13.746094.976563-6.234375-1.449218-12.515625-6.359374-16.476562-4.910157-3.960938-11.5625-5.003907-17.449219-2.730469l-156.503907 60.273438c-11.421874 4.640624-23.507812 7.429687-35.804687 8.265624-4.953125.144532-9.847656-1.074218-14.152344-3.523437-.148437 6.941406.324219 13.878906 1.414063 20.734375.746094 4.820312-2.554688 9.332031-7.375 10.078125-4.820313.746094-9.332032-2.554687-10.078125-7.375-3.796875-18.761719-2.265625-38.214844 4.414062-56.152344l.230469-.511719c4.148438-9.828124 9.359375-19.179687 15.535156-27.878906l.582032-.820312c14.902343-21.125 35.3125-50.050782 30.710937-61.988282-2.128906-6.066406-7.441406-10.460937-13.804687-11.414062-3.664063 0-6.832032 2.648438-9.214844 8.042969-9.085938 20.355469-41.242188 49.691406-72.386719 78.0625-6.710937 6.125-13.367187 12.191406-19.675781 18.070312-21.945313 20.304688-38.964844 55.527344-47.148438 74.691407-6.550781 15.160156-18.917968 27.050781-34.324218 32.996093l-9.839844 3.789063c-3.394532 1.3125-5.6171878 4.589844-5.589844 8.226562v60.316406c2.828125-1.042968 5.8125-1.59375 8.828125-1.621093zm0 0" data-original="#000000" class="active-path" data-old_color="#000000" fill="#179100"/><path d="m8.828125 459.035156h27.101563c7.195312-.085937 14.101562 2.824219 19.066406 8.035156 24.628906 26.921876 68.148437 27.277344 68.589844 27.277344h211.863281c9.605469.253906 17.84375-6.804687 19.066406-16.332031.449219-5.125-1.429687-10.183594-5.121094-13.773437-3.285156-3.328126-7.765625-5.203126-12.445312-5.207032h-89.777344c-4.875 0-8.828125-3.953125-8.828125-8.828125s3.953125-8.828125 8.828125-8.828125h158.898437c7.703126.050782 14.539063-4.925781 16.859376-12.269531.527343-1.746094.796874-3.558594.792968-5.382813-.070312-9.722656-7.933594-17.585937-17.652344-17.65625h-150.070312c-4.875 0-8.828125-3.953124-8.828125-8.828124s3.953125-8.828126 8.828125-8.828126h185.378906c4.148438.046876 8.167969-1.429687 11.300782-4.148437 4.027343-3.289063 6.359374-8.214844 6.355468-13.417969 0-9.75-7.90625-17.65625-17.65625-17.65625h-185.378906c-4.875 0-8.828125-3.949218-8.828125-8.824218 0-4.878907 3.953125-8.828126 8.828125-8.828126h150.070312c9.75 0 17.652344-7.90625 17.652344-17.65625s-7.902344-17.65625-17.652344-17.65625h-167.726562c-12.34375.226563-24.648438-1.5-36.457031-5.117187-8.609375-2.914063-15.15625-9.992187-17.390625-18.804687-2.171875-8.671876.222656-17.855469 6.355468-24.363282 7.472657-7.910156 15.859376-14.90625 24.984376-20.832031 37.957031-25.335937 57.820312-47.40625 57.820312-56.058594.195312-6.398437-3.121094-12.394531-8.652344-15.625-3.53125-1.410156-7.414062 0-11.5625 4.152344-23.484375 23.480469-109.550781 58.613281-126.589844 65.410156-27.71875 11.125-56.320312 37.871094-70.796874 52.789063-11.589844 11.789062-27.425782 18.4375-43.960938 18.449218h-3.265625c-4.875 0-8.828125 3.953126-8.828125 8.828126v141.152343c0 4.875 3.953125 8.828125 8.828125 8.828125zm132.414063-.085937h52.964843c4.875 0 8.828125 3.949219 8.828125 8.824219 0 4.878906-3.953125 8.828124-8.828125 8.828124h-52.964843c-4.875 0-8.828126-3.949218-8.828126-8.828124 0-4.875 3.953126-8.824219 8.828126-8.824219zm-59.234376-6.269531c3.46875-3.441407 9.066407-3.441407 12.535157 0 3.027343 3.347656 7.109375 5.558593 11.566406 6.269531 4.875.046875 8.785156 4.039062 8.738281 8.914062-.050781 4.875-4.039062 8.789063-8.917968 8.738281-9.140626-.648437-17.691407-4.75-23.921876-11.476562-3.421874-3.441406-3.421874-9 0-12.445312zm-64.351562-126.144532c0-4.875 3.953125-8.828125 8.828125-8.828125s8.828125 3.953125 8.828125 8.828125v8.828125c0 4.875-3.953125 8.824219-8.828125 8.824219s-8.828125-3.949219-8.828125-8.824219zm0 44.136719c0-4.875 3.953125-8.828125 8.828125-8.828125s8.828125 3.953125 8.828125 8.828125v61.792969c0 4.875-3.953125 8.828125-8.828125 8.828125s-8.828125-3.953125-8.828125-8.828125zm0 0" data-original="#000000" class="active-path" data-old_color="#000000" fill="#179100"/></g> </svg>
